<?xml version="1.0" encoding="UTF-8" standalone="no"?>
<!DOCTYPE svg PUBLIC "-//W3C//DTD SVG 1.1//EN" "http://www.w3.org/Graphics/SVG/1.1/DTD/svg11.dtd">
<svg width="100%" height="100%" viewBox="0 0 481 109" version="1.1" xmlns="http://www.w3.org/2000/svg" xmlns:xlink="http://www.w3.org/1999/xlink" xml:space="preserve" xmlns:serif="http://www.serif.com/" style="fill-rule:evenodd;clip-rule:evenodd;stroke-linejoin:round;stroke-miterlimit:2;">
    <g transform="matrix(1,0,0,1,-69.0096,-122.119)">
        <path d="M201.1,174.5C208.4,174.5 213.3,177.8 216.3,181.9L216.3,123.5C216.3,122.4 215,121.7 214.1,122.4L142,175.1L143.9,175.1C151.4,175.1 155.2,179.9 155.2,185.1C155.2,189.2 153.1,192.2 150.2,193.5C149.7,193.7 149.7,194.4 150.2,194.6C153.5,196 155.9,199.5 155.9,203.7C155.9,209.7 152,214.4 144.5,214.4L124,214.4C123.6,214.4 123.2,214.1 123.2,213.6L123.2,188.8L69.5,228.1C68.6,228.9 69,230.3 70.2,230.3L215,230.3C215.7,230.3 216.2,229.8 216.2,229.1L216.2,209.2C212.3,212.8 207.2,215.1 201,215.1C189.4,215.1 180,207.1 180,194.8C180.1,182.4 189.6,174.5 201.1,174.5ZM172.4,213.7C172.4,214.1 172.1,214.4 171.7,214.4L164.8,214.4C164.4,214.4 164.1,214.1 164.1,213.7L164.1,175.8C164.1,175.4 164.4,175.1 164.8,175.1L171.7,175.1C172.1,175.1 172.4,175.4 172.4,175.8L172.4,213.7Z" style="fill:rgb(52,49,63);fill-rule:nonzero;"/>
        <path d="M132.4,190.7L142.1,190.7C144.9,190.7 146.7,189.1 146.7,186.6C146.7,184.2 144.9,182.5 142.1,182.5L132,182.5C131.8,182.5 131.6,182.7 131.6,182.9L131.6,190C131.6,190.4 132,190.7 132.4,190.7Z" style="fill:rgb(52,49,63);fill-rule:nonzero;"/>
        <path d="M132.4,207.1L142.5,207.1C145.6,207.1 147.5,205.4 147.5,202.6C147.5,200.1 145.7,198.1 142.5,198.1L132.4,198.1C132,198.1 131.6,198.4 131.6,198.9L131.6,206.3C131.6,206.7 132,207.1 132.4,207.1Z" style="fill:rgb(52,49,63);fill-rule:nonzero;"/>
        <path d="M210,186.4C208.1,183.9 204.9,181.9 201.1,181.9C193.9,181.9 188.7,187.4 188.7,194.8C188.7,202.2 193.9,207.7 201.1,207.7C204.4,207.7 207.5,206.3 209.2,204.9C209.3,204.8 209.4,204.6 209.4,204.4L209.4,200.6C209.4,200.3 209.1,200 208.8,200L199.9,200C199.4,200 199.1,199.6 199.1,199.2L199.1,193.6C199.1,193.1 199.5,192.8 199.9,192.8L216.4,192.8L216.4,183.9L211.1,186.8C210.7,186.9 210.2,186.7 210,186.4Z" style="fill:rgb(52,49,63);fill-rule:nonzero;"/>
        <path d="M222.5,194.8C222.5,182.7 231.2,174.5 242.4,174.5C249.7,174.5 254.4,178.2 257.2,182.7C257.4,183 257.3,183.5 256.9,183.6L252.4,186C252.1,186.2 251.7,186.1 251.6,185.8C249.7,182.8 246.2,180.6 242.4,180.6C234.9,180.6 229.3,186.5 229.3,194.8C229.3,203 234.9,209 242.4,209C246.2,209 249.7,206.8 251.6,203.8C251.8,203.5 252.1,203.4 252.4,203.6L256.9,205.9C257.3,206.1 257.4,206.5 257.2,206.9C254.3,211.4 249.6,215.2 242.4,215.2C231.2,215.1 222.5,206.8 222.5,194.8Z" style="fill:rgb(52,49,63);fill-rule:nonzero;"/>
        <path d="M261.1,194.8C261.1,185 266.7,177.4 275.1,175.2C289.4,171.4 302.5,184.8 299.4,199.7C297.5,208.9 290.2,215.2 280.5,215.2C269.1,215.1 261.1,206.5 261.1,194.8ZM293,194.8C293,186.7 288,180.6 280.4,180.6C272.7,180.6 267.8,186.7 267.8,194.8C267.8,202.9 272.7,209 280.4,209C288.1,209 293,202.8 293,194.8Z" style="fill:rgb(52,49,63);fill-rule:nonzero;"/>
        <path d="M340.6,213.9L340.6,184L328.7,214.1C328.7,214.2 328.5,214.3 328.4,214.3L325.9,214.3C325.8,214.3 325.6,214.2 325.6,214.1L313.6,184L313.6,213.9C313.6,214.2 313.4,214.4 313.1,214.4L307.1,214.4C306.8,214.4 306.6,214.2 306.6,213.9L306.6,175.5C306.6,175.2 306.8,175 307.1,175L315.7,175C316.1,175 316.4,175.2 316.6,175.6L327.1,202.6L337.5,175.6C337.6,175.2 338,175 338.4,175L347,175C347.3,175 347.5,175.2 347.5,175.5L347.5,213.9C347.5,214.2 347.3,214.4 347,214.4L341,214.4C340.9,214.4 340.6,214.2 340.6,213.9Z" style="fill:rgb(52,49,63);fill-rule:nonzero;"/>
        <path d="M408.6,213.7L408.6,175.8C408.6,175.4 408.9,175.1 409.3,175.1L434.8,175.1C435.2,175.1 435.5,175.4 435.5,175.8L435.5,180.4C435.5,180.8 435.2,181.1 434.8,181.1L416.2,181.1C415.8,181.1 415.5,181.4 415.5,181.8L415.5,190.5C415.5,190.9 415.8,191.2 416.2,191.2L434.4,191.2C434.8,191.2 435.1,191.5 435.1,191.9L435.1,196.5C435.1,196.9 434.8,197.2 434.4,197.2L416.2,197.2C415.8,197.2 415.5,197.5 415.5,197.9L415.5,207.4C415.5,207.8 415.8,208.1 416.2,208.1L434.8,208.1C435.2,208.1 435.5,208.4 435.5,208.8L435.5,213.4C435.5,213.8 435.2,214.1 434.8,214.1L409.3,214.1C408.9,214.4 408.6,214.1 408.6,213.7Z" style="fill:rgb(52,49,63);fill-rule:nonzero;"/>
        <path d="M467.5,214L459.2,200C459.1,199.8 458.8,199.7 458.6,199.7L452.8,199.7C452.4,199.7 452.1,200 452.1,200.4L452.1,213.7C452.1,214.1 451.8,214.4 451.4,214.4L446,214.4C445.6,214.4 445.3,214.1 445.3,213.7L445.3,175.8C445.3,175.4 445.6,175.1 446,175.1L462.6,175.1C470.4,175.1 475.5,180.1 475.5,187.4C475.5,193.9 471.5,197.6 467.1,198.7C466.6,198.8 466.4,199.3 466.6,199.8C468.2,202.4 473.2,210.4 475.1,213.3C475.4,213.8 475.1,214.4 474.5,214.4L468.2,214.4C467.9,214.4 467.7,214.3 467.5,214ZM468.4,187.3C468.4,183.5 465.6,181.1 461.7,181.1L452.9,181.1C452.5,181.1 452.2,181.4 452.2,181.8L452.2,192.9C452.2,193.3 452.5,193.6 452.9,193.6L461.7,193.6C465.6,193.6 468.4,191.2 468.4,187.3Z" style="fill:rgb(52,49,63);fill-rule:nonzero;"/>
        <path d="M522.1,213.7L522.1,175.8C522.1,175.4 522.4,175.1 522.8,175.1L548.4,175.1C548.8,175.1 549.1,175.4 549.1,175.8L549.1,180.5C549.1,180.9 548.8,181.2 548.4,181.2L529.7,181.2C529.3,181.2 529,181.5 529,181.9L529,190.7C529,191.1 529.3,191.4 529.7,191.4L547.9,191.4C548.3,191.4 548.6,191.7 548.6,192.1L548.6,196.8C548.6,197.2 548.3,197.5 547.9,197.5L529.7,197.5C529.3,197.5 529,197.8 529,198.2L529,207.8C529,208.2 529.3,208.5 529.7,208.5L548.4,208.5C548.8,208.5 549.1,208.8 549.1,209.2L549.1,213.9C549.1,214.3 548.8,214.6 548.4,214.6L522.8,214.6C522.4,214.4 522.1,214.1 522.1,213.7Z" style="fill:rgb(52,49,63);fill-rule:nonzero;"/>
        <path d="M480.5,194.6C480.5,182.5 489.2,174.3 500.4,174.3C507.7,174.3 512.4,178 515.2,182.5C515.4,182.8 515.3,183.3 514.9,183.4L510.4,185.8C510.1,186 509.7,185.9 509.6,185.6C507.7,182.6 504.2,180.4 500.4,180.4C492.9,180.4 487.3,186.3 487.3,194.6C487.3,202.8 492.9,208.8 500.4,208.8C504.2,208.8 507.7,206.6 509.6,203.6C509.8,203.3 510.1,203.2 510.4,203.4L514.9,205.7C515.3,205.9 515.4,206.3 515.2,206.7C512.3,211.2 507.6,215 500.4,215C489.2,214.9 480.5,206.7 480.5,194.6Z" style="fill:rgb(52,49,63);fill-rule:nonzero;"/>
        <path d="M391.6,213.9L391.6,184L379.7,214.1C379.7,214.2 379.5,214.3 379.4,214.3L376.9,214.3C376.8,214.3 376.6,214.2 376.6,214.1L364.6,184L364.6,213.9C364.6,214.2 364.4,214.4 364.1,214.4L358.1,214.4C357.8,214.4 357.6,214.2 357.6,213.9L357.6,175.5C357.6,175.2 357.8,175 358.1,175L366.7,175C367.1,175 367.4,175.2 367.6,175.6L378.1,202.6L388.5,175.6C388.6,175.2 389,175 389.4,175L398,175C398.3,175 398.5,175.2 398.5,175.5L398.5,213.9C398.5,214.2 398.3,214.4 398,214.4L392,214.4C391.8,214.4 391.6,214.2 391.6,213.9Z" style="fill:rgb(52,49,63);fill-rule:nonzero;"/>
    </g>
</svg>
