<svg id="Layer_1" data-name="Layer 1" xmlns="http://www.w3.org/2000/svg" xmlns:xlink="http://www.w3.org/1999/xlink" viewBox="0 0 137.33333 43.33008"><defs><linearGradient id="linear-gradient" x1="15.29965" y1="587.41894" x2="20.08314" y2="606.37575" gradientTransform="translate(0 -576.5155)" gradientUnits="userSpaceOnUse"><stop offset="0.01093" stop-color="#e67417"/><stop offset="0.99952" stop-color="#e62f17"/></linearGradient><linearGradient id="linear-gradient-2" x1="19.062" y1="592.95528" x2="19.062" y2="615.54192" gradientTransform="translate(0 -576.5155)" gradientUnits="userSpaceOnUse"><stop offset="0" stop-color="#f2bb30"/><stop offset="0.30905" stop-color="#e67417"/><stop offset="1" stop-color="#e62f17"/></linearGradient><linearGradient id="linear-gradient-3" x1="27.77272" y1="602.90221" x2="29.46246" y2="595.05699" gradientTransform="translate(0 -576.5155)" gradientUnits="userSpaceOnUse"><stop offset="0" stop-color="#fff"/><stop offset="1" stop-color="#fff" stop-opacity="0"/></linearGradient></defs><title>moltin</title><path d="M51.3366,15.32673c1.7219-1.72189,3.44373-2.78426,5.64189-2.78426,2.56447,0,4.323.95248,5.09232,3.22386,2.27139-2.34467,4.06657-3.22386,6.15477-3.22386,3.66352,0,5.49531,2.0882,5.49531,6.77755V30.274H69.54445v-9.855c0-2.74766-.4762-3.99329-2.45457-3.99329-1.39213,0-2.85755.84264-4.54277,2.63776V30.274H58.40724v-9.855c0-2.74766-.58617-3.99329-2.52785-3.99329-1.53864,0-3.07735.98915-4.54277,2.67444V30.274H47.19681V12.87216H51.3366Z" fill="#3d3d3d"/><path d="M93.11262,21.66469c0,5.45871-3.44379,8.939-8.86588,8.939s-8.82916-3.48033-8.82916-8.939c0-5.60522,3.44366-9.1589,8.82914-9.12223C89.66884,12.5058,93.11262,16.05948,93.11262,21.66469Zm-4.06657,0c0-3.66359-1.86834-5.71518-4.79931-5.71518-2.89411,0-4.76258,2.05159-4.76258,5.71518,0,3.517,1.83186,5.49532,4.76258,5.49532,2.931,0,4.79932-1.9783,4.79932-5.49532Z" fill="#3d3d3d"/><path d="M94.74955,30.27405V6.46092h4.1398V30.27405Z" fill="#3d3d3d"/><path d="M113.162,29.54136a12.11884,12.11884,0,0,1-4.39621.91586c-3.84677,0-5.42208-1.7585-5.42208-6.08148V16.31587H100.7794V12.83549h2.56434V8.65908h4.17654v4.17641h4.83579v3.4804h-4.83581v7.87667c0,2.0882.73274,2.67437,2.711,2.67437a16.94544,16.94544,0,0,0,2.49113-.14652Z" fill="#3d3d3d"/><path d="M117.21293,5.54506a2.22125,2.22125,0,0,1,2.41791,2.23478,2.4289,2.4289,0,0,1-4.83581,0A2.22124,2.22124,0,0,1,117.21293,5.54506Zm-2.05152,24.729V12.87216h4.13967V30.27405Z" fill="#3d3d3d"/><path d="M125.46326,15.29013c1.90508-1.68529,3.73693-2.74766,6.19144-2.74766,3.84677,0,5.67863,2.05153,5.67863,6.77755v10.954h-4.1399v-9.855c0-2.82095-.43959-3.99329-2.74766-3.99329a6.70405,6.70405,0,0,0-4.9825,2.71105V30.274h-4.13968V12.87216h4.13967Z" fill="#3d3d3d"/><path d="M36.49,10.90816,19.66341,1.19343a1.20492,1.20492,0,0,0-1.20287,0L1.634,10.90816a1.2038,1.2038,0,0,0-.60137,1.04216V31.37978A1.203,1.203,0,0,0,1.634,32.42143l16.82659,9.71473a1.20492,1.20492,0,0,0,1.20287,0L36.49,32.42143a1.203,1.203,0,0,0,.60137-1.04166V11.95031A1.20381,1.20381,0,0,0,36.49,10.90816Z" fill="#fff"/><path d="M37.00705,10.01422,20.1797.299a2.23826,2.23826,0,0,0-2.2352,0L1.11766,10.01372A2.24416,2.24416,0,0,0,0,11.95031V31.37977a2.24213,2.24213,0,0,0,1.11779,1.93609L17.94425,43.0306a2.23507,2.23507,0,0,0,2.23521,0L37.0063,33.31587A2.24231,2.24231,0,0,0,38.124,31.37978V11.95032A2.24362,2.24362,0,0,0,37.00705,10.01422Zm.08433,21.36556A1.203,1.203,0,0,1,36.49,32.42144L19.66342,42.13617a1.20494,1.20494,0,0,1-1.20288,0L1.634,32.42144a1.203,1.203,0,0,1-.60137-1.04165V11.95033A1.20382,1.20382,0,0,1,1.634,10.90816L18.46054,1.19343a1.20492,1.20492,0,0,1,1.20287,0L36.49,10.90816a1.2038,1.2038,0,0,1,.60137,1.04216Z" fill="#999"/><path d="M3.97523,31.16437a1.36711,1.36711,0,0,1-.68356-1.184V20.11622a9.76249,9.76249,0,0,1,.49241-3.33875A6.59111,6.59111,0,0,1,7.742,12.8202c4.3099-1.71206,8.56966.60273,10.97616,4.03422a22.51712,22.51712,0,0,0,5.741,5.97217c2.24993,1.72243,9.30607,4.82017,10.37327-1.35v8.50382a1.3671,1.3671,0,0,1-.68356,1.184l-14.40321,8.3157a1.36711,1.36711,0,0,1-1.36711,0Z" fill="url(#linear-gradient)"/><path d="M3.97523,31.16437l14.40322,8.3157a1.36711,1.36711,0,0,0,1.36711,0l14.40322-8.3157a1.36715,1.36715,0,0,0,.68356-1.184V21.47659c0-6.29893-7.02583-6.819-10.64677-1.81282-2.87,3.96786-4.14117,5.3885-7.983,6.78553-4.49617,1.635-8.53181.7484-10.82692-1.49681a6.83666,6.83666,0,0,1-2.084-4.83628V29.9804A1.3671,1.3671,0,0,0,3.97523,31.16437Z" fill="url(#linear-gradient-2)"/><path d="M34.83233,21.47659c0-6.29893-7.02583-6.819-10.64678-1.81282-.49825.68887-.94768,1.29943-1.37138,1.84794.48893.41532,1.02637.84136,1.64489,1.31486C26.709,24.549,33.76513,27.64675,34.83233,21.47659Z" opacity="0.3" fill="url(#linear-gradient-3)" style="isolation:isolate"/></svg>